<svg xmlns="http://www.w3.org/2000/svg" viewBox="0 0 10000 10000" fill-rule="evenodd" clip-rule="evenodd"><path d="M6226 2783c496 290 660 774 709 1321 57 630 150 1304 729 1671 142 90 195 98 277-31 316-498 858-1296 728-1874-117-517-813-828-1432-1102-242-107-520-377-674-398-188-3-71 351 123 387 568 80 1637 481 1789 1156 129 571-745 1546-746 1546-445-282-580-605-625-1102-29-320-181-1343-877-1576zm-1444-448c52 245 69 405-10 664-77 253-87 440-36 698-125-311-61-616-32-712 75-246 16-483-41-642 39-3 79-6 118-7zm436 0c-52 245-69 405 10 664 77 253 87 440 36 698 125-311 61-616 32-712-75-246-16-483 41-642-39-3-79-6-118-7zm639 108c-62 103-73 215-71 311 22-94 76-208 152-284-27-10-54-19-81-27zm-318-75c-145 384-3 385-5 664 69-197-46-291 109-645-34-7-69-14-104-19zm-1397 75c62 103 73 215 71 311-22-94-76-208-152-284 27-10 54-19 81-27zm318-75c145 384 3 385 5 664-69-197 46-291-109-645 34-7 69-14 104-19zm1233 4432c154 36 237 65 350 183-12-32-32-60-56-85 8 2 20 1 32-4 54 21 102 45 145 71-15 31-30 61-47 90-69-62-142-102-191-126 5-8 6-16 3-21-7-12-31-12-55 1s-37 33-30 46c5 9 18 11 34 7 95 44 162 80 220 125-22 35-47 67-73 97-82-98-174-166-235-202 5-8 7-16 3-22-7-12-31-12-55 1s-37 33-30 46c5 9 19 11 36 7 105 51 193 125 260 192-27 27-56 51-88 71-78-120-176-202-237-243 4-7 5-14 2-19-7-12-31-12-55 1s-37 33-30 46c5 10 23 12 41 5 84 50 181 135 257 224-404 239-587 0-895 3-308-4-490 236-895-3 76-89 174-173 257-224 19 7 36 5 41-5 7-12-7-33-30-46-24-13-48-13-55-1-3 5-2 12 2 19-61 41-160 122-237 243-32-20-61-44-88-71 66-68 154-141 260-192 17 5 31 2 36-7 7-12-7-33-30-46-24-13-48-13-55-1-3 6-2 14 3 22-60 36-153 104-235 202-27-29-51-62-73-97 58-46 125-82 220-125 16 4 29 1 34-7 7-12-7-33-30-46-24-13-48-13-55-1-3 6-2 14 3 21-49 24-122 64-191 126-17-29-32-59-47-90 43-25 91-49 145-71 12 5 23 6 32 4-24 25-44 53-56 85 113-118 197-147 350-183 23 6 44 2 48-10 5-13-12-31-38-40-25-9-50-5-54 8 0 1 0 2-1 2-64 20-165 59-236 124 1-12-11-29-32-40-24-13-48-13-55-1-2 4-2 9 0 14-31 14-74 36-122 66-10-23-19-47-28-71 129-55 267-90 395-109 23 7 45 2 49-10 5-13-12-31-38-40-24-8-47-5-53 6-78 14-222 48-367 113-9-25-17-50-25-76 96-31 203-53 320-58 24 7 46 3 51-9 5-13-12-31-38-40-20-7-40-6-49 2-74 6-181 24-297 61-52-182-86-368-119-505-105-431-404-649-544-1104 14 546 348 758 447 1167 33 134 66 306 116 478-162 67-327 175-433 345 1-1 166-184 447-301 9 29 19 58 29 86-127 70-244 167-302 299 79-109 191-195 316-261 12 30 24 59 37 88-77 64-151 149-184 256 0 0 57-110 201-219 19 38 39 74 61 108-39 47-72 103-96 169 41-59 76-105 112-144 27 39 56 76 88 109-23 35-44 74-61 115 0 0 26-43 75-101 32 31 68 59 106 83h1c-10 21-19 44-28 67 10-20 22-40 37-61 460 280 561 16 956 24 394-8 495 256 956-24 14 21 27 41 37 61-8-23-17-45-28-67h1c38-24 74-52 106-83 48 58 74 101 75 101-17-41-38-79-61-115 32-33 62-70 88-109 36 39 71 85 112 144-23-66-57-122-96-169 22-34 42-71 61-108 144 109 201 219 201 219-33-107-106-192-184-256 13-29 25-58 37-88 125 66 237 152 316 261-58-132-175-228-302-299 10-28 20-57 29-86 281 117 446 300 447 301-106-170-271-278-433-345 51-172 84-344 116-478 99-409 434-621 447-1167-140 454-440 673-544 1104-33 137-66 322-119 505-115-37-222-55-297-61-9-8-29-9-49-2-25 9-42 27-38 40s27 17 51 9c116 5 223 27 320 58-8 25-16 51-25 76-145-65-290-98-367-113-6-12-29-14-53-6-25 9-42 27-38 40 4 12 26 17 49 10 128 18 266 54 395 109-9 24-18 48-28 71-47-30-91-52-122-66 2-5 2-10 0-14-7-12-31-12-55 1-21 11-33 28-32 40-71-65-171-104-236-124 0-1 0-2-1-2-5-13-29-17-54-8s-42 27-38 40c4 12 25 16 48 10zM3774 2783c-496 290-660 774-709 1321-57 630-150 1304-729 1671-142 90-195 98-277-31-316-498-858-1296-728-1874 117-517 813-828 1432-1102 242-107 520-377 674-398 188-3 71 351-123 387-568 80-1637 481-1789 1156-129 571 745 1546 746 1546 445-282 580-605 625-1102 29-320 181-1343 877-1576zm808 3672c-104 155 202 621 418 625 216-3 522-470 418-625-103-153-733-153-836 0zm-158-2451c-150 0-374 143-844 267 339-140 767-407 884-407 211 0 150 216 197 346-123-120-71-206-237-206zm-752 679c0-130 106-236 236-236s236 106 236 236-106 236-236 236-236-106-236-236zm236-151c-61 0-111 50-111 111s50 111 111 111 111-50 111-111-50-111-111-111zm146-80c-254-53-456 112-456 112s-49 324 205 406 454-104 454-104 15-369-203-415zm548 3066c318 93 478 93 796 0-302 192-483 199-796 0zm973-3514c150 0 374 143 844 267-339-140-767-407-884-407-211 0-150 216-197 346 123-120 71-206 237-206zm752 679c0-130-106-236-236-236s-236 106-236 236 106 236 236 236 236-106 236-236zm-236-151c61 0 111 50 111 111s-50 111-111 111-111-50-111-111 50-111 111-111zm-145-80c254-53 456 112 456 112s49 324-205 406-454-104-454-104-15-369 203-415z" fill="#10b0ca"/><path d="M3924 4978c97 164 220 392 220 512s-97 218-218 218c-120 0-218-97-218-218 0-120 115-351 216-512z" fill="#10b0ca"/></svg>