<svg xmlns="http://www.w3.org/2000/svg" viewBox="0 0 10000 10000"><path d="M5528 1001c140-16 295 328 322 554 26 226-86 248-226 265-140 16-255 21-281-206-26-226 46-597 186-613zm-1055 0c-140-16-295 328-322 554-26 226 86 248 226 265 140 16 255 21 281-206 26-226-46-597-186-613zm11 1155c-449-253-1170 256-1468 845-435 857-281 1422 399 1803 528 296 1097 487 1373-377 160-502 91-2049-304-2271zM2338 4580c-575 192-725 1124-615 1807 160 995 994 1470 1499 958 415-422 884-728 822-1248-65-552-1383-1624-1706-1516zm-60-1173c-141 0-256 360-256 588s114 237 255 237 256-9 256-236c0-228-114-588-255-588zm2722 3155c684 0 690 870 1659 1348 503 248 205 1077-360 1091-253 7-477-140-1299-140s-1046 147-1299 140c-565-15-863-843-360-1091 969-479 975-1348 1659-1348zm516-4405c449-253 1170 256 1468 845 435 857 281 1421-399 1803-528 296-1097 487-1373-377-160-502-91-2049 304-2271zm2146 2424c575 192 725 1124 615 1807-160 995-994 1470-1499 958-415-422-884-728-822-1248 65-552 1383-1624 1706-1516zm60-1173c141 0 256 360 256 588s-114 237-255 237-256-9-256-236c0-228 114-588 255-588z" fill="#10b0ca"/></svg>