<svg xmlns="http://www.w3.org/2000/svg" viewBox="0 0 10000 10000" fill-rule="evenodd" clip-rule="evenodd"><path d="M6617 4087c64-56 149 42 85 98-446 384-1023 370-1394 34l3 3c-63 105-178 175-310 175s-247-71-311-176l3-3c-371 337-949 351-1395-33-64-56 20-153 85-98 701 604 1538 101 1552-795 0-14-10-43-23-50-204-109-538-502-447-647 106-169 965-169 1071 0 91 144-243 537-447 647-12 7-24 32-24 49 13 896 851 1400 1552 796zm-2490-922c57 0 103 46 103 103s-46 103-103 103-103-46-103-103 46-103 103-103zm1747 0c-57 0-103 46-103 103s46 103 103 103 103-46 103-103-46-103-103-103zm369 220c-57 0-103 46-103 103s46 103 103 103 103-46 103-103-46-103-103-103zm0-464c-57 0-103 46-103 103s46 103 103 103 103-46 103-103-46-103-103-103zm-2484 464c57 0 103 46 103 103s-46 103-103 103-103-46-103-103 46-103 103-103zm0-464c57 0 103 46 103 103s-46 103-103 103-103-46-103-103 46-103 103-103z" fill="#10b0ca"/><path d="M5000 1000c1490 0 2697 1208 2697 2697 0 1490-923 3505-2697 5303-1775-1797-2697-3813-2697-5303s1208-2697 2697-2697zm1 564c1178 0 2133 955 2133 2133s-955 2133-2133 2133-2133-955-2133-2133 955-2133 2133-2133z" fill="#10b0ca"/></svg>