<svg xmlns="http://www.w3.org/2000/svg" viewBox="0 0 10000 10000" fill-rule="evenodd" clip-rule="evenodd"><path d="M5376 6120c334-162 578-414 744-744 48-96 199-76 275 0s46 178 0 275c-148 315-384 571-744 744-96 46-199 76-275 0s-96-228 0-275zM1806 1806c1074-1074 2816-1074 3891 0 1074 1074 1074 2816 0 3891-1074 1074-2816 1074-3891 0-1074-1074-1074-2816 0-3891zm231 231c947-947 2482-947 3429 0s947 2482 0 3429-2482 947-3429 0-947-2482 0-3429zm3644 4517c438-163 719-463 874-874l2446 2446c-127 472-410 773-874 874L5681 6554z" fill="#10b0ca"/><path d="M4550 4515c-130 0-186 70-222-136-122-864-1001-864-1122 0-37 213-98 136-222 136-471 0-471 836 0 836 293 0 277-343 418-187 234 235 502 269 730 0 145-145 137 187 418 187 508 0 412-836 0-836zm697-1386c237 68 262 551 127 852s-365 357-520 305c-206-69-309-336-155-703 143-339 270-533 547-454zm-2960 0c-237 68-262 551-127 852s365 357 520 305c206-69 309-336 155-703-143-339-270-533-547-454zm914-1085c-347 2-466 431-394 843 72 413 288 484 509 449 309-49 350-337 328-663-23-349-155-631-444-629zm1133 0c347 2 466 431 394 843-72 413-288 484-509 449-309-49-350-337-328-663 23-349 155-631 444-629z" fill="#10b0ca"/></svg>