<svg xmlns="http://www.w3.org/2000/svg" viewBox="0 0 10000 10000" fill-rule="evenodd" clip-rule="evenodd"><path d="M4057 2886c732 0 1405 258 1931 687l1954-1954H6523c-104 0-189-85-189-189v-242c0-104 85-189 189-189h2266c57 0 109 26 144 67 41 35 67 86 67 144v2266c0 104-85 189-189 189h-242c-104 0-189-85-189-189V2057L6426 4011c430 526 687 1199 687 1931 0 844-342 1608-895 2161s-1317 895-2161 895-1608-342-2161-895-895-1317-895-2161 342-1608 895-2161 1317-895 2161-895zm1627 1430c-416-416-992-674-1627-674s-1211 258-1627 674-674 992-674 1627 258 1211 674 1627 992 674 1627 674 1211-258 1627-674 674-992 674-1627-258-1211-674-1627z" fill="#ebebeb"/></svg>