<svg xmlns="http://www.w3.org/2000/svg" viewBox="0 0 10000 10000" fill-rule="evenodd" clip-rule="evenodd"><g fill="#10b0ca"><path d="M4502 953h997c585 0 1116 239 1501 624s624 916 624 1501v3843c0 585-239 1116-624 1501s-916 624-1501 624h-997c-584 0-1116-239-1501-624s-624-916-624-1501V3078c0-584 239-1116 624-1501s916-624 1501-624zm623 615c131 7 248 63 335 150 93 93 151 222 151 363v1460c0 142-58 270-151 363-87 87-205 143-335 150v852c0 69-56 125-125 125s-125-56-125-125v-852c-131-7-248-63-335-150-93-93-151-222-151-363V2081c0-142 58-270 151-363 87-87 205-143 335-150v-365h-373c-515 0-984 211-1324 551s-551 809-551 1324v3843c0 515 211 984 551 1324s809 551 1324 551h997c515 0 984-211 1324-551s551-809 551-1324V3078c0-515-211-984-551-1324s-809-551-1324-551h-373v365z"/><path d="M5810 7062c49-49 128-49 177 0s49 128 0 177l-898 898c-49 49-128 49-177 0l-898-898c-49-49-49-128 0-177s128-49 177 0l810 810 810-810z"/><path d="M5810 6219c49-49 128-49 177 0s49 128 0 177l-898 898c-49 49-128 49-177 0l-898-898c-49-49-49-128 0-177s128-49 177 0l810 810 810-810z"/><path d="M5810 5376c49-49 128-49 177 0s49 128 0 177l-898 898c-49 49-128 49-177 0l-898-898c-49-49-49-128 0-177s128-49 177 0l810 810 810-810z"/></g></svg>