<svg xmlns="http://www.w3.org/2000/svg" viewBox="0 0 10000 10000" fill-rule="evenodd" clip-rule="evenodd"><path d="M5000 1000c724 0 1380 294 1854 768 475 475 768 1130 768 1854s-294 1380-768 1854c-412 412-960 687-1571 753v1089h987c89 0 162 73 162 162v225c0 89-73 162-162 162h-987v970c0 89-73 162-162 162h-242c-89 0-162-73-162-162v-970h-987c-89 0-162-73-162-162v-225c0-89 73-162 162-162h987V6229c-611-66-1159-341-1571-753-475-475-768-1130-768-1854s294-1380 768-1854c475-475 1130-768 1854-768zm1396 1227c-357-357-851-578-1396-578s-1039 221-1396 578-578 851-578 1396 221 1039 578 1396 851 578 1396 578 1039-221 1396-578 578-851 578-1396-221-1039-578-1396z" fill="#ebebeb"/></svg>