<svg xmlns="http://www.w3.org/2000/svg" viewBox="200 -200 13000 6500">
  <path style="fill: #3B4044" d="M160 3597c-4,-4 121,-86 49,-132 25,-61 90,-141 127,-190 144,-147 -38,-188 54,-410 74,-180 -72,-618 99,-280 47,94 12,295 83,394 3,4 51,404 102,415 36,-88 114,-75 109,-186 0,-4 99,-313 -20,-232 -95,65 121,-219 126,-241 42,-212 15,-222 152,-435 1,-2 89,-434 78,-463 -42,-101 10,-405 -73,-587 -45,-98 232,154 226,310 -1,25 82,70 82,302 0,142 91,97 65,244 -68,-21 -4,163 144,230 -68,127 85,472 85,554 0,44 82,317 73,218 -8,-83 84,-49 106,-299 7,-79 73,-54 66,-268 0,-3 61,-182 57,-271 -3,-61 168,-162 67,-304 -26,-37 208,-375 139,-544 -49,-120 212,-357 168,-537 -19,-77 221,-260 221,-466 21,9 98,489 98,554 0,196 -24,664 39,815 67,163 -13,57 122,247 116,163 -174,-58 16,324 261,526 -51,155 33,361 36,88 80,207 124,332 15,-75 39,-149 112,-230 81,-90 94,-1089 147,-1000 157,265 60,292 179,545 79,168 -27,696 124,900 12,16 154,415 154,288 0,-212 44,-78 75,-145 0,-1 70,-172 -8,-169 -113,4 272,-731 114,-647 -71,38 73,-156 89,-243 2,-11 105,-177 99,-333 -13,-343 148,240 154,310 1,17 129,350 64,304 -20,-14 30,43 42,145 50,410 -101,-19 -32,220 78,272 44,114 33,391 0,1 37,261 80,159 7,-15 156,-378 157,-379 109,-72 -23,-154 137,-355 127,-160 -29,-260 144,-469 33,-41 144,-530 157,-612 28,-173 -111,-163 73,-434 29,-43 140,-411 236,-546 37,-52 32,-303 84,-48 18,89 -16,293 62,402 5,7 -26,345 65,473 26,36 -54,336 -22,495 43,212 147,389 138,620 -5,134 280,570 328,830 37,-70 100,-164 213,-315 183,-244 33,-682 166,-1005 37,-89 25,-323 81,-187 58,142 234,350 190,569 -22,110 73,125 66,286 -5,114 107,859 317,694 37,-29 103,-52 126,-80 57,-67 201,-465 201,-590 0,-103 55,-475 114,-546 46,-56 32,9 88,84 15,21 -8,98 103,266 66,102 76,599 191,794 67,114 -9,-43 73,-159 51,-72 9,-250 122,-399 34,-45 97,-369 78,-422 -14,-37 71,-879 71,-726 0,177 102,143 115,302 7,83 53,-1 48,130 -1,26 189,426 179,652 -2,48 42,5 56,163 4,48 51,26 84,132 102,-253 187,-495 91,-382 -208,243 16,-216 22,-255 22,-131 251,-545 234,-587 -2,0 -108,56 -71,48 7,-42 57,-100 81,-294 2,-20 27,-157 -6,-145 -38,186 -31,-97 -3,-164 42,-102 -67,-573 -54,-556 31,38 439,423 349,460 -266,-153 267,377 98,348 -74,-12 217,481 157,581 -31,52 93,252 95,266 -68,24 -146,-90 -41,74 8,13 163,362 176,338 154,-277 123,-191 159,-484 7,-58 200,-134 66,-181 -105,-37 54,-179 49,-292 0,-1 119,-168 114,-285 -6,-151 261,-206 124,-538 -19,-46 96,-168 88,-277 -4,-49 131,-217 171,-384 26,-110 70,-27 106,-283 0,-1 54,-158 111,-176 57,279 122,162 109,476 0,2 65,104 65,279 0,219 -99,588 73,726 5,4 92,287 120,334 45,74 -182,67 -22,196 31,25 81,298 190,394 28,25 -251,-16 -65,247 42,59 55,142 50,235 10,-10 20,-19 31,-28 52,-41 154,-468 89,-559 -23,-32 105,-237 96,-430 -2,-38 38,-224 33,-359 -11,-259 132,256 141,285 47,150 86,131 128,335 34,168 1,284 96,493 7,15 -12,194 41,322 6,16 -6,754 285,413 0,-1 130,-83 52,-126 -44,-24 -229,123 -7,-140 1,-1 138,-85 76,-170 -48,3 -176,99 -103,-31 49,-88 94,-257 99,-353 3,-66 -188,40 -27,-173 2,-3 60,-262 37,-260 -95,10 -75,32 -8,-142 122,-315 27,-102 38,-235 7,-85 90,-250 122,-314 42,61 221,268 205,339 -1,0 -173,-57 -62,67 37,41 346,377 225,375 -193,-2 15,232 48,284 59,93 38,142 -60,138 170,256 -24,272 92,318 94,38 -309,155 28,263 72,23 221,170 118,197 -94,25 72,167 140,200l200 0 0 2903 -13400 0 0 -2903 200 0z"/>
</svg>
