<svg xmlns="http://www.w3.org/2000/svg" style="fill-rule:evenodd; clip-rule:evenodd" viewBox="0 0 10000 10000"><path style="fill:#10b0ca" d="M5335 1153l1111 1089 0 -330c0,-220 180,-400 400,-400l438 0c220,0 400,180 400,400l0 1752 1205 1385c117,134 143,314 69,476 -74,162 -226,260 -404,260l-128 0 0 2873c0,188 -154,343 -343,343l-2262 0 0 -2678 -1643 0 0 2678 -2262 0c-188,0 -343,-154 -343,-343l0 -2873 -128 0c-178,0 -331,-98 -404,-260 -74,-162 -51,-344 69,-476l3554 -3896c90,-98 202,-153 335,-153 133,0 248,52 335,153z"/></svg>