<svg xmlns="http://www.w3.org/2000/svg" style="fill-rule:evenodd; clip-rule:evenodd" viewBox="0 0 10000 10000"><path style="fill:#ebebeb" d="M4057 2886c732,0 1405,258 1931,687l1954 -1954 -1419 0c-104,0 -189,-85 -189,-189l0 -242c0,-104 85,-189 189,-189l2266 0c57,0 109,26 144,67 41,35 67,86 67,144l0 2266c0,104 -85,189 -189,189l-242 0c-104,0 -189,-85 -189,-189l0 -1419 -1954 1954c430,526 687,1199 687,1931 0,844 -342,1608 -895,2161 -553,553 -1317,895 -2161,895 -844,0 -1608,-342 -2161,-895 -553,-553 -895,-1317 -895,-2161 0,-844 342,-1608 895,-2161 553,-553 1317,-895 2161,-895zm1627 1430c-416,-416 -992,-674 -1627,-674 -635,0 -1211,258 -1627,674 -416,416 -674,992 -674,1627 0,635 258,1211 674,1627 416,416 992,674 1627,674 635,0 1211,-258 1627,-674 416,-416 674,-992 674,-1627 0,-635 -258,-1211 -674,-1627z"/></svg>