<svg xmlns="http://www.w3.org/2000/svg" viewBox="0 0 10000 10000" style="fill-rule:evenodd; clip-rule:evenodd">
 <g id="mouse">
  <metadata id="CorelCorpID_0Corel-Layer"/>
  <path id="mouse" style="fill:#10b0ca" d="M4502 953l997 0c585,0 1116,239 1501,624 385,385 624,916 624,1501l0 3843c0,585 -239,1116 -624,1501 -385,385 -916,624 -1501,624l-997 0c-584,0 -1116,-239 -1501,-624 -385,-385 -624,-916 -624,-1501l0 -3843c0,-584 239,-1116 624,-1501 385,-385 916,-624 1501,-624zm623 615c131,7 248,63 335,150 93,93 151,222 151,363l0 1460c0,142 -58,270 -151,363 -87,87 -205,143 -335,150l0 852c0,69 -56,125 -125,125 -69,0 -125,-56 -125,-125l0 -852c-131,-7 -248,-63 -335,-150 -93,-93 -151,-222 -151,-363l0 -1460c0,-142 58,-270 151,-363 87,-87 205,-143 335,-150l0 -365 -373 0c-515,0 -984,211 -1324,551 -340,340 -551,809 -551,1324l0 3843c0,515 211,984 551,1324 340,340 809,551 1324,551l997 0c515,0 984,-211 1324,-551 340,-340 551,-809 551,-1324l0 -3843c0,-515 -211,-984 -551,-1324 -340,-340 -809,-551 -1324,-551l-373 0 0 365z"/>
  <g id="arrows">
   <path id="arrow_bottom" style="fill:#10b0ca" d="M5810 7062c49,-49 128,-49 177,0 49,49 49,128 0,177l-898 898c-49,49 -128,49 -177,0l-898 -898c-49,-49 -49,-128 0,-177 49,-49 128,-49 177,0l810 810 810 -810z"/>
   <path id="arrow_middle" style="fill:#10b0ca" d="M5810 6219c49,-49 128,-49 177,0 49,49 49,128 0,177l-898 898c-49,49 -128,49 -177,0l-898 -898c-49,-49 -49,-128 0,-177 49,-49 128,-49 177,0l810 810 810 -810z"/>
   <path id="arrow_top" style="fill:#10b0ca" d="M5810 5376c49,-49 128,-49 177,0 49,49 49,128 0,177l-898 898c-49,49 -128,49 -177,0l-898 -898c-49,-49 -49,-128 0,-177 49,-49 128,-49 177,0l810 810 810 -810z"/>
  </g>
 </g>
</svg>
